<svg width="26" height="27" viewBox="0 0 26 27" fill="none" xmlns="http://www.w3.org/2000/svg">
<path d="M7.16741 18.8664C6.66836 18.8664 6.252 18.6927 5.91833 18.3455C5.58466 17.9982 5.41747 17.5659 5.41675 17.0484V6.05711C5.41675 5.53961 5.58394 5.10761 5.91833 4.76111C6.25272 4.41461 6.66908 4.24098 7.16741 4.24023H22.0838C22.5822 4.24023 22.9985 4.41386 23.3329 4.76111C23.6673 5.10836 23.8341 5.54073 23.8334 6.05823V17.0484C23.8334 17.5659 23.6666 17.9982 23.3329 18.3455C22.9992 18.6927 22.5829 18.866 22.0838 18.8652L7.16741 18.8664ZM14.6251 12.9714L22.7501 6.68823C22.7501 6.46923 22.7327 6.25998 22.6981 6.06048C22.6634 5.86098 22.6114 5.67311 22.5421 5.49686L14.6251 11.6L6.66691 5.53848C6.59758 5.71473 6.55244 5.89923 6.5315 6.09198C6.51055 6.28323 6.50008 6.48198 6.50008 6.68823L14.6251 12.9714Z" fill="#AE6261"/>
</svg>
