<svg width="28" height="27" viewBox="0 0 28 27" fill="none" xmlns="http://www.w3.org/2000/svg">
<path d="M24.5 5.0625H3.5C3.03587 5.0625 2.59075 5.24029 2.26256 5.55676C1.93437 5.87322 1.75 6.30245 1.75 6.75V20.25C1.75 20.6976 1.93437 21.1268 2.26256 21.4432C2.59075 21.7597 3.03587 21.9375 3.5 21.9375H24.5C24.9641 21.9375 25.4092 21.7597 25.7374 21.4432C26.0656 21.1268 26.25 20.6976 26.25 20.25V6.75C26.25 6.30245 26.0656 5.87322 25.7374 5.55676C25.4092 5.24029 24.9641 5.0625 24.5 5.0625ZM22.575 6.75L14 12.4706L5.425 6.75H22.575ZM3.5 20.25V7.51781L13.5013 14.1919C13.6477 14.2899 13.8217 14.3424 14 14.3424C14.1783 14.3424 14.3523 14.2899 14.4987 14.1919L24.5 7.51781V20.25H3.5Z" fill="#5B5A5A"/>
</svg>
