<svg width="86" height="87" viewBox="0 0 86 87" fill="none" xmlns="http://www.w3.org/2000/svg">
<path d="M13.2603 22.8085C18.2292 17.2949 25.7482 14.5 35.6046 14.5H39.1463V24.7189L36.2988 25.3025C31.4467 26.2957 28.0715 28.2496 26.2653 31.117C25.3225 32.6616 24.7879 34.4304 24.714 36.25H35.6046C36.5439 36.25 37.4448 36.6319 38.109 37.3117C38.7732 37.9916 39.1463 38.9136 39.1463 39.875V65.25C39.1463 69.2484 35.9694 72.5 32.063 72.5H10.813C9.87365 72.5 8.97281 72.1181 8.30862 71.4383C7.64443 70.7584 7.27129 69.8364 7.27129 68.875V50.75L7.28192 40.1686C7.25004 39.7663 6.57713 30.2325 13.2603 22.8085ZM71.0213 72.5H49.7713C48.832 72.5 47.9311 72.1181 47.267 71.4383C46.6028 70.7584 46.2296 69.8364 46.2296 68.875V50.75L46.2403 40.1686C46.2084 39.7663 45.5355 30.2325 52.2186 22.8085C57.1875 17.2949 64.7065 14.5 74.563 14.5H78.1046V24.7189L75.2571 25.3025C70.405 26.2957 67.0298 28.2496 65.2236 31.117C64.2808 32.6616 63.7463 34.4304 63.6723 36.25H74.563C75.5023 36.25 76.4031 36.6319 77.0673 37.3117C77.7315 37.9916 78.1046 38.9136 78.1046 39.875V65.25C78.1046 69.2484 74.9278 72.5 71.0213 72.5Z" fill="#E1807D"/>
</svg>
