<svg width="86" height="87" viewBox="0 0 86 87" fill="none" xmlns="http://www.w3.org/2000/svg">
<path d="M13.4485 22.8085C18.4174 17.2949 25.9364 14.5 35.7929 14.5H39.3345V24.7189L36.487 25.3025C31.6349 26.2957 28.2597 28.2496 26.4535 31.117C25.5107 32.6616 24.9762 34.4304 24.9022 36.25H35.7929C36.7322 36.25 37.633 36.6319 38.2972 37.3117C38.9614 37.9916 39.3345 38.9136 39.3345 39.875V65.25C39.3345 69.2484 36.1577 72.5 32.2512 72.5H11.0012C10.0619 72.5 9.16105 72.1181 8.49686 71.4383C7.83266 70.7584 7.45953 69.8364 7.45953 68.875V50.75L7.47015 40.1686C7.43828 39.7663 6.76536 30.2325 13.4485 22.8085ZM71.2095 72.5H49.9595C49.0202 72.5 48.1194 72.1181 47.4552 71.4383C46.791 70.7584 46.4179 69.8364 46.4179 68.875V50.75L46.4285 40.1686C46.3966 39.7663 45.7237 30.2325 52.4068 22.8085C57.3758 17.2949 64.8947 14.5 74.7512 14.5H78.2929V24.7189L75.4454 25.3025C70.5933 26.2957 67.2181 28.2496 65.4118 31.117C64.4691 32.6616 63.9345 34.4304 63.8606 36.25H74.7512C75.6905 36.25 76.5913 36.6319 77.2555 37.3117C77.9197 37.9916 78.2929 38.9136 78.2929 39.875V65.25C78.2929 69.2484 75.116 72.5 71.2095 72.5Z" fill="#E1807D"/>
</svg>
