<svg width="126" height="24" viewBox="0 0 126 24" fill="none" xmlns="http://www.w3.org/2000/svg">
<path d="M8.24277 7.33992L1.86277 8.26492L1.74977 8.28792C1.57871 8.33333 1.42276 8.42333 1.29786 8.54872C1.17296 8.67412 1.08357 8.83041 1.03883 9.00165C0.994087 9.17289 0.995593 9.35293 1.04319 9.5234C1.09079 9.69386 1.18278 9.84864 1.30977 9.97192L5.93177 14.4709L4.84177 20.8259L4.82877 20.9359C4.81829 21.1128 4.85503 21.2894 4.93522 21.4474C5.0154 21.6055 5.13615 21.7394 5.2851 21.8354C5.43405 21.9315 5.60585 21.9862 5.78291 21.994C5.95997 22.0018 6.13593 21.9625 6.29277 21.8799L11.9988 18.8799L17.6918 21.8799L17.7918 21.9259C17.9568 21.9909 18.1362 22.0109 18.3115 21.9837C18.4868 21.9565 18.6517 21.8832 18.7894 21.7712C18.927 21.6592 19.0323 21.5127 19.0946 21.3466C19.1569 21.1804 19.1738 21.0008 19.1438 20.8259L18.0528 14.4709L22.6768 9.97092L22.7548 9.88592C22.8662 9.74869 22.9392 9.58438 22.9665 9.40972C22.9937 9.23506 22.9742 9.0563 22.9099 8.89165C22.8455 8.72701 22.7387 8.58235 22.6003 8.47244C22.4618 8.36252 22.2967 8.29126 22.1218 8.26592L15.7418 7.33992L12.8898 1.55992C12.8072 1.39246 12.6795 1.25144 12.521 1.15283C12.3624 1.05422 12.1795 1.00195 11.9928 1.00195C11.8061 1.00195 11.6231 1.05422 11.4646 1.15283C11.306 1.25144 11.1783 1.39246 11.0958 1.55992L8.24277 7.33992Z" fill="#D86B67"/>
<path d="M86.2428 7.33992L79.8628 8.26492L79.7498 8.28792C79.5787 8.33333 79.4228 8.42333 79.2979 8.54872C79.173 8.67412 79.0836 8.83041 79.0388 9.00165C78.9941 9.17289 78.9956 9.35293 79.0432 9.5234C79.0908 9.69386 79.1828 9.84864 79.3098 9.97192L83.9318 14.4709L82.8418 20.8259L82.8288 20.9359C82.8183 21.1128 82.855 21.2894 82.9352 21.4474C83.0154 21.6055 83.1361 21.7394 83.2851 21.8354C83.4341 21.9315 83.6059 21.9862 83.7829 21.994C83.96 22.0018 84.1359 21.9625 84.2928 21.8799L89.9988 18.8799L95.6918 21.8799L95.7918 21.9259C95.9568 21.9909 96.1362 22.0109 96.3115 21.9837C96.4868 21.9565 96.6517 21.8832 96.7894 21.7712C96.927 21.6592 97.0323 21.5127 97.0946 21.3466C97.1569 21.1804 97.1738 21.0008 97.1438 20.8259L96.0528 14.4709L100.677 9.97092L100.755 9.88592C100.866 9.74869 100.939 9.58438 100.966 9.40972C100.994 9.23506 100.974 9.0563 100.91 8.89165C100.846 8.72701 100.739 8.58235 100.6 8.47244C100.462 8.36252 100.297 8.29126 100.122 8.26592L93.7418 7.33992L90.8898 1.55992C90.8072 1.39246 90.6795 1.25144 90.521 1.15283C90.3624 1.05422 90.1795 1.00195 89.9928 1.00195C89.8061 1.00195 89.6231 1.05422 89.4646 1.15283C89.306 1.25144 89.1783 1.39246 89.0958 1.55992L86.2428 7.33992Z" fill="#D86B67"/>
<path d="M110.243 7.33992L103.863 8.26492L103.75 8.28792C103.579 8.33333 103.423 8.42333 103.298 8.54872C103.173 8.67412 103.084 8.83041 103.039 9.00165C102.994 9.17289 102.996 9.35293 103.043 9.5234C103.091 9.69386 103.183 9.84864 103.31 9.97192L107.932 14.4709L106.842 20.8259L106.829 20.9359C106.818 21.1128 106.855 21.2894 106.935 21.4474C107.015 21.6055 107.136 21.7394 107.285 21.8354C107.434 21.9315 107.606 21.9862 107.783 21.994C107.96 22.0018 108.136 21.9625 108.293 21.8799L113.999 18.8799L119.692 21.8799L119.792 21.9259C119.957 21.9909 120.136 22.0109 120.312 21.9837C120.487 21.9565 120.652 21.8832 120.789 21.7712C120.927 21.6592 121.032 21.5127 121.095 21.3466C121.157 21.1804 121.174 21.0008 121.144 20.8259L120.053 14.4709L124.677 9.97092L124.755 9.88592C124.866 9.74869 124.939 9.58438 124.966 9.40972C124.994 9.23506 124.974 9.0563 124.91 8.89165C124.846 8.72701 124.739 8.58235 124.6 8.47244C124.462 8.36252 124.297 8.29126 124.122 8.26592L117.742 7.33992L114.89 1.55992C114.807 1.39246 114.679 1.25144 114.521 1.15283C114.362 1.05422 114.179 1.00195 113.993 1.00195C113.806 1.00195 113.623 1.05422 113.465 1.15283C113.306 1.25144 113.178 1.39246 113.096 1.55992L110.243 7.33992Z" fill="#D86B67"/>
<g clip-path="url(#clip0_2052_3321)">
<path d="M60.2428 7.33992L53.8628 8.26492L53.7498 8.28792C53.5787 8.33333 53.4228 8.42333 53.2979 8.54872C53.173 8.67412 53.0836 8.83041 53.0388 9.00165C52.9941 9.17289 52.9956 9.35293 53.0432 9.5234C53.0908 9.69386 53.1828 9.84864 53.3098 9.97192L57.9318 14.4709L56.8418 20.8259L56.8288 20.9359C56.8183 21.1128 56.855 21.2894 56.9352 21.4474C57.0154 21.6055 57.1361 21.7394 57.2851 21.8354C57.4341 21.9315 57.6059 21.9862 57.7829 21.994C57.96 22.0018 58.1359 21.9625 58.2928 21.8799L63.9988 18.8799L69.6918 21.8799L69.7918 21.9259C69.9568 21.9909 70.1362 22.0109 70.3115 21.9837C70.4868 21.9565 70.6517 21.8832 70.7894 21.7712C70.927 21.6592 71.0323 21.5127 71.0946 21.3466C71.1569 21.1804 71.1738 21.0008 71.1438 20.8259L70.0528 14.4709L74.6768 9.97092L74.7548 9.88592C74.8662 9.74869 74.9392 9.58438 74.9665 9.40972C74.9937 9.23506 74.9742 9.0563 74.9099 8.89165C74.8455 8.72701 74.7387 8.58235 74.6003 8.47244C74.4618 8.36252 74.2967 8.29126 74.1218 8.26592L67.7418 7.33992L64.8898 1.55992C64.8072 1.39246 64.6795 1.25144 64.521 1.15283C64.3624 1.05422 64.1795 1.00195 63.9928 1.00195C63.8061 1.00195 63.6231 1.05422 63.4646 1.15283C63.306 1.25144 63.1783 1.39246 63.0958 1.55992L60.2428 7.33992Z" fill="#D86B67"/>
<path d="M60.2428 7.33992L53.8628 8.26492L53.7498 8.28792C53.5787 8.33333 53.4228 8.42333 53.2979 8.54872C53.173 8.67412 53.0836 8.83041 53.0388 9.00165C52.9941 9.17289 52.9956 9.35293 53.0432 9.5234C53.0908 9.69386 53.1828 9.84864 53.3098 9.97192L57.9318 14.4709L56.8418 20.8259L56.8288 20.9359C56.8183 21.1128 56.855 21.2894 56.9352 21.4474C57.0154 21.6055 57.1361 21.7394 57.2851 21.8354C57.4341 21.9315 57.6059 21.9862 57.7829 21.994C57.96 22.0018 58.1359 21.9625 58.2928 21.8799L63.9988 18.8799L69.6918 21.8799L69.7918 21.9259C69.9568 21.9909 70.1362 22.0109 70.3115 21.9837C70.4868 21.9565 70.6517 21.8832 70.7894 21.7712C70.927 21.6592 71.0323 21.5127 71.0946 21.3466C71.1569 21.1804 71.1738 21.0008 71.1438 20.8259L70.0528 14.4709L74.6768 9.97092L74.7548 9.88592C74.8662 9.74869 74.9392 9.58438 74.9665 9.40972C74.9937 9.23506 74.9742 9.0563 74.9099 8.89165C74.8455 8.72701 74.7387 8.58235 74.6003 8.47244C74.4618 8.36252 74.2967 8.29126 74.1218 8.26592L67.7418 7.33992L64.8898 1.55992C64.8072 1.39246 64.6795 1.25144 64.521 1.15283C64.3624 1.05422 64.1795 1.00195 63.9928 1.00195C63.8061 1.00195 63.6231 1.05422 63.4646 1.15283C63.306 1.25144 63.1783 1.39246 63.0958 1.55992L60.2428 7.33992Z" fill="#D86B67"/>
</g>
<path d="M34.4345 7.33992L28.0512 8.26492L27.9381 8.28792C27.767 8.33333 27.611 8.42333 27.486 8.54872C27.361 8.67412 27.2716 8.83041 27.2268 9.00165C27.1821 9.17289 27.1836 9.35293 27.2312 9.5234C27.2788 9.69386 27.3709 9.84864 27.4979 9.97192L32.1223 14.4709L31.0318 20.8259L31.0187 20.9359C31.0083 21.1128 31.045 21.2894 31.1253 21.4474C31.2055 21.6055 31.3263 21.7394 31.4753 21.8354C31.6243 21.9315 31.7962 21.9862 31.9734 21.994C32.1505 22.0018 32.3266 21.9625 32.4835 21.8799L38.1925 18.8799L43.8884 21.8799L43.9885 21.9259C44.1536 21.9909 44.3331 22.0109 44.5085 21.9837C44.6839 21.9565 44.8489 21.8832 44.9866 21.7712C45.1243 21.6592 45.2297 21.5127 45.292 21.3466C45.3543 21.1804 45.3713 21.0008 45.3412 20.8259L44.2496 14.4709L48.876 9.97092L48.9541 9.88592C49.0656 9.74869 49.1387 9.58438 49.1659 9.40972C49.1932 9.23506 49.1736 9.0563 49.1093 8.89165C49.0449 8.72701 48.938 8.58235 48.7995 8.47244C48.661 8.36252 48.4958 8.29126 48.3208 8.26592L41.9374 7.33992L39.0839 1.55992C39.0014 1.39246 38.8736 1.25144 38.7149 1.15283C38.5563 1.05422 38.3733 1.00195 38.1865 1.00195C37.9997 1.00195 37.8166 1.05422 37.658 1.15283C37.4994 1.25144 37.3716 1.39246 37.289 1.55992L34.4345 7.33992Z" fill="#D86B67"/>
<defs>
<clipPath id="clip0_2052_3321">
<rect width="24" height="24" fill="white" transform="translate(52)"/>
</clipPath>
</defs>
</svg>
