<svg width="126" height="24" viewBox="0 0 126 24" fill="none" xmlns="http://www.w3.org/2000/svg">
<path d="M8.24301 7.33992L1.86301 8.26492L1.75001 8.28792C1.57895 8.33333 1.423 8.42333 1.2981 8.54872C1.1732 8.67412 1.08381 8.83041 1.03907 9.00165C0.994331 9.17289 0.995837 9.35293 1.04344 9.5234C1.09104 9.69386 1.18303 9.84864 1.31001 9.97192L5.93201 14.4709L4.84201 20.8259L4.82901 20.9359C4.81854 21.1128 4.85528 21.2894 4.93546 21.4474C5.01564 21.6055 5.13639 21.7394 5.28535 21.8354C5.4343 21.9315 5.6061 21.9862 5.78316 21.994C5.96022 22.0018 6.13617 21.9625 6.29301 21.8799L11.999 18.8799L17.692 21.8799L17.792 21.9259C17.9571 21.9909 18.1365 22.0109 18.3118 21.9837C18.4871 21.9565 18.652 21.8832 18.7896 21.7712C18.9272 21.6592 19.0326 21.5127 19.0948 21.3466C19.1571 21.1804 19.1741 21.0008 19.144 20.8259L18.053 14.4709L22.677 9.97092L22.755 9.88592C22.8664 9.74869 22.9395 9.58438 22.9667 9.40972C22.994 9.23506 22.9744 9.0563 22.9101 8.89165C22.8458 8.72701 22.7389 8.58235 22.6005 8.47244C22.4621 8.36252 22.297 8.29126 22.122 8.26592L15.742 7.33992L12.89 1.55992C12.8075 1.39246 12.6797 1.25144 12.5212 1.15283C12.3627 1.05422 12.1797 1.00195 11.993 1.00195C11.8063 1.00195 11.6233 1.05422 11.4648 1.15283C11.3063 1.25144 11.1785 1.39246 11.096 1.55992L8.24301 7.33992Z" fill="#D86B67"/>
<path d="M86.243 7.33992L79.863 8.26492L79.75 8.28792C79.5789 8.33333 79.423 8.42333 79.2981 8.54872C79.1732 8.67412 79.0838 8.83041 79.0391 9.00165C78.9943 9.17289 78.9958 9.35293 79.0434 9.5234C79.091 9.69386 79.183 9.84864 79.31 9.97192L83.932 14.4709L82.842 20.8259L82.829 20.9359C82.8185 21.1128 82.8553 21.2894 82.9355 21.4474C83.0156 21.6055 83.1364 21.7394 83.2853 21.8354C83.4343 21.9315 83.6061 21.9862 83.7832 21.994C83.9602 22.0018 84.1362 21.9625 84.293 21.8799L89.999 18.8799L95.692 21.8799L95.792 21.9259C95.9571 21.9909 96.1365 22.0109 96.3118 21.9837C96.4871 21.9565 96.652 21.8832 96.7896 21.7712C96.9272 21.6592 97.0326 21.5127 97.0948 21.3466C97.1571 21.1804 97.1741 21.0008 97.144 20.8259L96.053 14.4709L100.677 9.97092L100.755 9.88592C100.866 9.74869 100.939 9.58438 100.967 9.40972C100.994 9.23506 100.974 9.0563 100.91 8.89165C100.846 8.72701 100.739 8.58235 100.6 8.47244C100.462 8.36252 100.297 8.29126 100.122 8.26592L93.742 7.33992L90.89 1.55992C90.8075 1.39246 90.6797 1.25144 90.5212 1.15283C90.3627 1.05422 90.1797 1.00195 89.993 1.00195C89.8063 1.00195 89.6233 1.05422 89.4648 1.15283C89.3063 1.25144 89.1785 1.39246 89.096 1.55992L86.243 7.33992Z" fill="#D86B67"/>
<path d="M110.243 7.33992L103.863 8.26492L103.75 8.28792C103.579 8.33333 103.423 8.42333 103.298 8.54872C103.173 8.67412 103.084 8.83041 103.039 9.00165C102.994 9.17289 102.996 9.35293 103.043 9.5234C103.091 9.69386 103.183 9.84864 103.31 9.97192L107.932 14.4709L106.842 20.8259L106.829 20.9359C106.819 21.1128 106.855 21.2894 106.935 21.4474C107.016 21.6055 107.136 21.7394 107.285 21.8354C107.434 21.9315 107.606 21.9862 107.783 21.994C107.96 22.0018 108.136 21.9625 108.293 21.8799L113.999 18.8799L119.692 21.8799L119.792 21.9259C119.957 21.9909 120.136 22.0109 120.312 21.9837C120.487 21.9565 120.652 21.8832 120.79 21.7712C120.927 21.6592 121.033 21.5127 121.095 21.3466C121.157 21.1804 121.174 21.0008 121.144 20.8259L120.053 14.4709L124.677 9.97092L124.755 9.88592C124.866 9.74869 124.939 9.58438 124.967 9.40972C124.994 9.23506 124.974 9.0563 124.91 8.89165C124.846 8.72701 124.739 8.58235 124.6 8.47244C124.462 8.36252 124.297 8.29126 124.122 8.26592L117.742 7.33992L114.89 1.55992C114.807 1.39246 114.68 1.25144 114.521 1.15283C114.363 1.05422 114.18 1.00195 113.993 1.00195C113.806 1.00195 113.623 1.05422 113.465 1.15283C113.306 1.25144 113.179 1.39246 113.096 1.55992L110.243 7.33992Z" fill="#D86B67"/>
<g clip-path="url(#clip0_2052_3308)">
<path d="M60.243 7.33992L53.863 8.26492L53.75 8.28792C53.5789 8.33333 53.423 8.42333 53.2981 8.54872C53.1732 8.67412 53.0838 8.83041 53.0391 9.00165C52.9943 9.17289 52.9958 9.35293 53.0434 9.5234C53.091 9.69386 53.183 9.84864 53.31 9.97192L57.932 14.4709L56.842 20.8259L56.829 20.9359C56.8185 21.1128 56.8553 21.2894 56.9355 21.4474C57.0156 21.6055 57.1364 21.7394 57.2853 21.8354C57.4343 21.9315 57.6061 21.9862 57.7832 21.994C57.9602 22.0018 58.1362 21.9625 58.293 21.8799L63.999 18.8799L69.692 21.8799L69.792 21.9259C69.9571 21.9909 70.1365 22.0109 70.3118 21.9837C70.4871 21.9565 70.652 21.8832 70.7896 21.7712C70.9272 21.6592 71.0326 21.5127 71.0948 21.3466C71.1571 21.1804 71.1741 21.0008 71.144 20.8259L70.053 14.4709L74.677 9.97092L74.755 9.88592C74.8664 9.74869 74.9395 9.58438 74.9667 9.40972C74.994 9.23506 74.9744 9.0563 74.9101 8.89165C74.8458 8.72701 74.7389 8.58235 74.6005 8.47244C74.4621 8.36252 74.297 8.29126 74.122 8.26592L67.742 7.33992L64.89 1.55992C64.8075 1.39246 64.6797 1.25144 64.5212 1.15283C64.3627 1.05422 64.1797 1.00195 63.993 1.00195C63.8063 1.00195 63.6233 1.05422 63.4648 1.15283C63.3063 1.25144 63.1785 1.39246 63.096 1.55992L60.243 7.33992Z" fill="#D86B67"/>
<path d="M60.243 7.33992L53.863 8.26492L53.75 8.28792C53.5789 8.33333 53.423 8.42333 53.2981 8.54872C53.1732 8.67412 53.0838 8.83041 53.0391 9.00165C52.9943 9.17289 52.9958 9.35293 53.0434 9.5234C53.091 9.69386 53.183 9.84864 53.31 9.97192L57.932 14.4709L56.842 20.8259L56.829 20.9359C56.8185 21.1128 56.8553 21.2894 56.9355 21.4474C57.0156 21.6055 57.1364 21.7394 57.2853 21.8354C57.4343 21.9315 57.6061 21.9862 57.7832 21.994C57.9602 22.0018 58.1362 21.9625 58.293 21.8799L63.999 18.8799L69.692 21.8799L69.792 21.9259C69.9571 21.9909 70.1365 22.0109 70.3118 21.9837C70.4871 21.9565 70.652 21.8832 70.7896 21.7712C70.9272 21.6592 71.0326 21.5127 71.0948 21.3466C71.1571 21.1804 71.1741 21.0008 71.144 20.8259L70.053 14.4709L74.677 9.97092L74.755 9.88592C74.8664 9.74869 74.9395 9.58438 74.9667 9.40972C74.994 9.23506 74.9744 9.0563 74.9101 8.89165C74.8458 8.72701 74.7389 8.58235 74.6005 8.47244C74.4621 8.36252 74.297 8.29126 74.122 8.26592L67.742 7.33992L64.89 1.55992C64.8075 1.39246 64.6797 1.25144 64.5212 1.15283C64.3627 1.05422 64.1797 1.00195 63.993 1.00195C63.8063 1.00195 63.6233 1.05422 63.4648 1.15283C63.3063 1.25144 63.1785 1.39246 63.096 1.55992L60.243 7.33992Z" fill="#D86B67"/>
</g>
<path d="M34.7404 7.33992L28.3571 8.26492L28.244 8.28792C28.0729 8.33333 27.9169 8.42333 27.7919 8.54872C27.6669 8.67412 27.5775 8.83041 27.5327 9.00165C27.488 9.17289 27.4895 9.35293 27.5371 9.5234C27.5847 9.69386 27.6768 9.84864 27.8038 9.97192L32.4282 14.4709L31.3377 20.8259L31.3247 20.9359C31.3142 21.1128 31.3509 21.2894 31.4312 21.4474C31.5114 21.6055 31.6322 21.7394 31.7812 21.8354C31.9303 21.9315 32.1021 21.9862 32.2793 21.994C32.4565 22.0018 32.6325 21.9625 32.7894 21.8799L38.4984 18.8799L44.1944 21.8799L44.2944 21.9259C44.4596 21.9909 44.639 22.0109 44.8144 21.9837C44.9898 21.9565 45.1548 21.8832 45.2925 21.7712C45.4302 21.6592 45.5356 21.5127 45.5979 21.3466C45.6602 21.1804 45.6772 21.0008 45.6471 20.8259L44.5555 14.4709L49.1819 9.97092L49.26 9.88592C49.3715 9.74869 49.4446 9.58438 49.4718 9.40972C49.4991 9.23506 49.4795 9.0563 49.4152 8.89165C49.3508 8.72701 49.2439 8.58235 49.1054 8.47244C48.9669 8.36252 48.8017 8.29126 48.6267 8.26592L42.2433 7.33992L39.3899 1.55992C39.3073 1.39246 39.1795 1.25144 39.0208 1.15283C38.8622 1.05422 38.6792 1.00195 38.4924 1.00195C38.3056 1.00195 38.1225 1.05422 37.9639 1.15283C37.8053 1.25144 37.6775 1.39246 37.5949 1.55992L34.7404 7.33992Z" fill="#D86B67"/>
<defs>
<clipPath id="clip0_2052_3308">
<rect width="24" height="24" fill="white" transform="translate(52)"/>
</clipPath>
</defs>
</svg>
