<svg width="226" height="200" viewBox="0 0 226 200" fill="none" xmlns="http://www.w3.org/2000/svg">
<g filter="url(#filter0_d_3435_1647)">
<path d="M190.778 67.4682L187.479 69.5493L171.051 79.8682L100.678 124.047L99.79 124.633L99.5992 124.75L96.0159 127.007L95.889 127.066L92.9396 125.219L92.4 124.867L25.7367 83.0051L21.202 80.1615L1.22191 67.6145L1 67.4682L21.202 54.7746L93.6057 9.30664H98.1724L171.051 55.0675L173.462 56.5921L190.778 67.4682Z" fill="#FFB1AE"/>
<path d="M174.62 8.96372V151.463C174.62 154.732 171.695 157.397 168.073 157.397H24.1156C20.5268 157.397 17.6025 154.732 17.6025 151.463V8.96372C17.6025 5.66391 20.5268 3 24.1156 3H168.073C171.695 3 174.62 5.66391 174.62 8.96372Z" fill="#F5F5F5"/>
<path d="M112.808 30.8789H42.1113V40.2998H112.808V30.8789Z" fill="#BFBFBF"/>
<path d="M112.808 29.3906H42.1113V38.8116H112.808V29.3906Z" fill="#FFB1AE"/>
<path d="M149.543 82.6953H42.1113V92.1162H149.543V82.6953Z" fill="#BFBFBF"/>
<path d="M149.543 81.207H42.1113V90.628H149.543V81.207Z" fill="#FFB1AE"/>
<path d="M149.543 108.604H42.1113V118.024H149.543V108.604Z" fill="#BFBFBF"/>
<path d="M149.543 107.115H42.1113V116.536H149.543V107.115Z" fill="#FFB1AE"/>
<path d="M149.543 56.7871H42.1113V66.208H149.543V56.7871Z" fill="#BFBFBF"/>
<path d="M149.543 55.2988H42.1113V64.7198H149.543V55.2988Z" fill="#FFB1AE"/>
<path d="M96.1112 122.578L95.0013 123.232L73.5305 135.773L70.898 137.326L5.59885 175.464L1.22217 178V67.1562L27.5134 82.5045L92.5275 120.479L93.0348 120.779L96.0162 122.523L96.1112 122.578Z" fill="#F38986"/>
<path d="M190.346 65.1042C190.706 64.8937 191.001 65.063 191.001 65.4802V174.834C191.001 175.251 190.994 175.587 190.985 175.579C190.976 175.571 190.933 175.54 190.889 175.51C190.846 175.48 190.781 175.437 190.746 175.415C190.712 175.392 190.676 175.374 190.667 175.374C190.658 175.374 190.356 175.202 189.996 174.992L99.5253 122.161C99.1653 121.951 98.5768 121.606 98.2175 121.394L97.9062 121.21C97.547 120.998 96.9963 120.671 96.6823 120.484C96.3684 120.296 96.4066 119.972 96.7673 119.762L99.0714 118.424C99.4321 118.215 99.7487 118.031 99.7747 118.016C99.801 118.001 99.8437 117.977 99.87 117.962C99.8964 117.947 100.213 117.763 100.573 117.553L102.592 116.38C102.953 116.171 103.542 115.827 103.902 115.616L190.346 65.1042Z" fill="#F38986"/>
<path opacity="0.68" d="M140.955 45.0543C148.781 45.0543 155.125 38.7077 155.125 30.8787C155.125 23.0497 148.781 16.7031 140.955 16.7031C133.129 16.7031 126.784 23.0497 126.784 30.8787C126.784 38.7077 133.129 45.0543 140.955 45.0543Z" fill="#F38986"/>
<path d="M191 160.863V177.868H190.809L188.082 177.995H11.275L11.1484 175.361C14.3517 173.172 18.6007 170.221 21.3602 168.35L21.7406 168.096L31.0016 161.719L45.4631 151.726L49.649 148.839L93.5736 118.541L96.5226 116.479C97.2203 116.035 98.0133 115.654 98.8694 115.401C99.8844 115.051 100.994 114.829 102.104 114.734C102.485 114.702 102.833 114.671 103.214 114.702C103.595 114.639 103.976 114.639 104.356 114.639C105.371 114.607 106.354 114.702 107.306 114.892C108.32 115.083 109.24 115.401 110.065 115.844L143.365 134.372L159.824 143.54L164.106 145.92L179.614 154.549L189.826 160.228C190.111 160.387 190.428 160.545 190.746 160.736C190.809 160.767 190.904 160.831 191 160.863Z" fill="#FFB1AE"/>
<path d="M191 166.86V177.995H1.22217V166.86C4.55236 164.829 8.92904 162.069 11.7831 160.356L12.1635 160.102L21.7095 154.17L36.6468 144.906L40.96 142.209L86.2798 114.069L89.3243 112.165C90.91 111.213 92.9714 110.738 95.0013 110.706C95.3816 110.674 95.7305 110.674 96.1112 110.706C96.4919 110.674 96.8723 110.674 97.2531 110.706C98.1411 110.706 98.9976 110.801 99.8222 110.991C100.964 111.213 102.01 111.626 102.899 112.165L107.307 114.893L135.279 132.279L151.263 142.21L155.418 144.811L170.514 154.17L180.44 160.356C180.725 160.515 181.011 160.673 181.328 160.864C183.358 162.165 185.958 163.783 188.4 165.274C189.288 165.844 190.176 166.384 191 166.86Z" fill="#D86B67"/>
<path opacity="0.2" d="M174.604 8.96409V10.5503C174.604 7.25126 171.686 4.58624 168.071 4.58624H24.1196C20.5364 4.58624 17.5869 7.25089 17.5869 10.5503V8.96409C17.5865 5.66465 20.5364 3 24.1196 3H168.071C171.686 3 174.604 5.66465 174.604 8.96409Z" fill="#F38986"/>
</g>
<g filter="url(#filter1_d_3435_1647)">
<circle cx="198" cy="168" r="24" fill="#47CA78"/>
</g>
<path fill-rule="evenodd" clip-rule="evenodd" d="M211.523 160.454C211.922 160.864 212.146 161.42 212.146 162C212.146 162.58 211.922 163.137 211.523 163.547L195.596 179.943C195.385 180.16 195.135 180.332 194.86 180.449C194.585 180.566 194.291 180.626 193.993 180.626C193.695 180.626 193.4 180.566 193.125 180.449C192.85 180.332 192.6 180.16 192.39 179.943L184.476 171.798C184.273 171.596 184.112 171.355 184 171.088C183.889 170.821 183.83 170.534 183.828 170.244C183.825 169.953 183.879 169.665 183.986 169.396C184.093 169.127 184.251 168.883 184.45 168.678C184.65 168.472 184.887 168.31 185.148 168.2C185.409 168.09 185.689 168.035 185.971 168.037C186.253 168.04 186.532 168.1 186.791 168.215C187.051 168.329 187.285 168.496 187.481 168.705L193.992 175.407L208.517 160.454C208.715 160.25 208.949 160.089 209.207 159.979C209.465 159.869 209.741 159.812 210.02 159.812C210.299 159.812 210.576 159.869 210.834 159.979C211.092 160.089 211.326 160.25 211.523 160.454Z" fill="#F8F8F8"/>
<defs>
<filter id="filter0_d_3435_1647" x="0.2" y="0.2" width="203.601" height="188.6" filterUnits="userSpaceOnUse" color-interpolation-filters="sRGB">
<feFlood flood-opacity="0" result="BackgroundImageFix"/>
<feColorMatrix in="SourceAlpha" type="matrix" values="0 0 0 0 0 0 0 0 0 0 0 0 0 0 0 0 0 0 127 0" result="hardAlpha"/>
<feOffset dx="6" dy="4"/>
<feGaussianBlur stdDeviation="3.4"/>
<feComposite in2="hardAlpha" operator="out"/>
<feColorMatrix type="matrix" values="0 0 0 0 0 0 0 0 0 0 0 0 0 0 0 0 0 0 0.11 0"/>
<feBlend mode="normal" in2="BackgroundImageFix" result="effect1_dropShadow_3435_1647"/>
<feBlend mode="normal" in="SourceGraphic" in2="effect1_dropShadow_3435_1647" result="shape"/>
</filter>
<filter id="filter1_d_3435_1647" x="170" y="144" width="56" height="56" filterUnits="userSpaceOnUse" color-interpolation-filters="sRGB">
<feFlood flood-opacity="0" result="BackgroundImageFix"/>
<feColorMatrix in="SourceAlpha" type="matrix" values="0 0 0 0 0 0 0 0 0 0 0 0 0 0 0 0 0 0 127 0" result="hardAlpha"/>
<feOffset dy="4"/>
<feGaussianBlur stdDeviation="2"/>
<feComposite in2="hardAlpha" operator="out"/>
<feColorMatrix type="matrix" values="0 0 0 0 0 0 0 0 0 0 0 0 0 0 0 0 0 0 0.12 0"/>
<feBlend mode="normal" in2="BackgroundImageFix" result="effect1_dropShadow_3435_1647"/>
<feBlend mode="normal" in="SourceGraphic" in2="effect1_dropShadow_3435_1647" result="shape"/>
</filter>
</defs>
</svg>
