<svg width="85" height="87" viewBox="0 0 85 87" fill="none" xmlns="http://www.w3.org/2000/svg">
<path d="M13.0723 22.8085C18.0412 17.2949 25.5602 14.5 35.4166 14.5H38.9583V24.7189L36.1108 25.3025C31.2587 26.2957 27.8835 28.2496 26.0773 31.117C25.1345 32.6616 24.6 34.4304 24.526 36.25H35.4166C36.3559 36.25 37.2568 36.6319 37.921 37.3117C38.5852 37.9916 38.9583 38.9136 38.9583 39.875V65.25C38.9583 69.2484 35.7814 72.5 31.875 72.5H10.625C9.68566 72.5 8.78483 72.1181 8.12063 71.4383C7.45644 70.7584 7.0833 69.8364 7.0833 68.875V50.75L7.09393 40.1686C7.06205 39.7663 6.38914 30.2325 13.0723 22.8085ZM70.8333 72.5H49.5833C48.644 72.5 47.7432 72.1181 47.079 71.4383C46.4148 70.7584 46.0416 69.8364 46.0416 68.875V50.75L46.0523 40.1686C46.0204 39.7663 45.3475 30.2325 52.0306 22.8085C56.9996 17.2949 64.5185 14.5 74.375 14.5H77.9166V24.7189L75.0691 25.3025C70.2171 26.2957 66.8419 28.2496 65.0356 31.117C64.0928 32.6616 63.5583 34.4304 63.4843 36.25H74.375C75.3143 36.25 76.2151 36.6319 76.8793 37.3117C77.5435 37.9916 77.9166 38.9136 77.9166 39.875V65.25C77.9166 69.2484 74.7398 72.5 70.8333 72.5Z" fill="#E1807D"/>
</svg>
