<svg width="32" height="33" viewBox="0 0 32 33" fill="none" xmlns="http://www.w3.org/2000/svg">
<path fill-rule="evenodd" clip-rule="evenodd" d="M30.9022 0.43372C32.023 1.23851 32.3372 2.88642 31.6042 4.11703L15.1206 31.7951C14.9285 32.1176 14.675 32.3904 14.3775 32.5948C14.08 32.7992 13.7456 32.9302 13.3974 32.9788C13.0493 33.0273 12.6957 32.9924 12.361 32.8762C12.0264 32.7601 11.7187 32.5655 11.4593 32.3061L0.793468 21.6607C0.317723 21.1858 0.0332896 20.5228 0.00274058 19.8177C-0.0278084 19.1126 0.198029 18.423 0.630572 17.9007C1.06311 17.3784 1.66693 17.0661 2.30919 17.0326C2.95144 16.999 3.57953 17.247 4.05528 17.7219L12.619 26.268L27.5473 1.20445C27.8991 0.613901 28.4502 0.20096 29.0794 0.0564279C29.7085 -0.088104 30.3642 0.0476073 30.9022 0.43372Z" fill="#3DDB2F"/>
</svg>
