<svg width="29" height="27" viewBox="0 0 29 27" fill="none" xmlns="http://www.w3.org/2000/svg">
<g clip-path="url(#clip0_2823_54)">
<path d="M27.2844 6.24022L22.5558 1.81522C22.2433 1.52577 21.8205 1.36328 21.3797 1.36328C20.9389 1.36328 20.516 1.52577 20.2036 1.81522L3.43995 17.4002L1.9094 23.5502C1.8566 23.775 1.85841 24.008 1.91469 24.2321C1.97098 24.4562 2.08032 24.6657 2.23473 24.8454C2.38914 25.0251 2.58471 25.1704 2.80717 25.2707C3.02962 25.371 3.27334 25.4238 3.52051 25.4252C3.63563 25.4368 3.75177 25.4368 3.8669 25.4252L10.545 24.0002L27.2844 8.43022C27.5953 8.1393 27.7698 7.74561 27.7698 7.33522C27.7698 6.92483 27.5953 6.53114 27.2844 6.24022ZM9.7394 22.6502L3.48023 23.8727L4.90606 18.1577L17.4486 6.52522L22.2819 11.0252L9.7394 22.6502ZM23.3613 9.93772L18.528 5.43772L21.3313 2.84272L26.0841 7.34272L23.3613 9.93772Z" fill="white"/>
</g>
<defs>
<clipPath id="clip0_2823_54">
<rect width="29" height="27" fill="white"/>
</clipPath>
</defs>
</svg>
