<svg width="86" height="88" viewBox="0 0 86 88" fill="none" xmlns="http://www.w3.org/2000/svg">
<path d="M71.945 64.2456C66.9719 69.7555 59.4508 72.5447 49.5944 72.5372L46.0527 72.5346L46.0604 62.3157L48.9083 61.7342C53.7612 60.7446 57.1378 58.7933 58.9462 55.9273C59.8902 54.3834 60.426 52.615 60.5014 50.7955L49.6107 50.7873C48.6714 50.7865 47.7709 50.4039 47.1072 49.7236C46.4435 49.0433 46.0711 48.121 46.0718 47.1596L46.0909 21.7846C46.0939 17.7862 49.2732 14.537 53.1797 14.5399L74.4297 14.5559C75.369 14.5566 76.2695 14.9392 76.9332 15.6196C77.5969 16.2999 77.9693 17.2222 77.9686 18.1836L77.955 36.3086L77.9364 46.8899C77.968 47.2923 78.6337 56.8266 71.945 64.2456ZM14.2214 14.5106L35.4714 14.5266C36.4107 14.5273 37.3112 14.9099 37.9749 15.5902C38.6386 16.2705 39.011 17.1929 39.0103 18.1543L38.9967 36.2793L38.9781 46.8606C39.0096 47.263 39.6754 56.7973 32.9867 64.2162C28.0136 69.7261 20.4925 72.5153 10.636 72.5079L7.09437 72.5053L7.10206 62.2864L9.95 61.7049C14.8028 60.7153 18.1795 58.764 19.9879 55.898C20.9318 54.3541 21.4677 52.5857 21.543 50.7661L10.6524 50.7579C9.7131 50.7572 8.81254 50.3746 8.14886 49.6943C7.48519 49.014 7.11275 48.0917 7.11347 47.1303L7.13257 21.7553C7.13558 17.7569 10.3149 14.5077 14.2214 14.5106Z" fill="#E1807D"/>
</svg>
