<svg width="51" height="41" viewBox="0 0 51 41" fill="none" xmlns="http://www.w3.org/2000/svg">
<path d="M11.475 0.5C13.1658 0.5 14.7873 1.15848 15.9828 2.33058C17.1784 3.50269 17.85 5.0924 17.85 6.75C17.85 8.4076 17.1784 9.99731 15.9828 11.1694C14.7873 12.3415 13.1658 13 11.475 13C9.78424 13 8.16272 12.3415 6.96718 11.1694C5.77163 9.99731 5.1 8.4076 5.1 6.75C5.1 5.0924 5.77163 3.50269 6.96718 2.33058C8.16272 1.15848 9.78424 0.5 11.475 0.5ZM40.8 0.5C42.4908 0.5 44.1123 1.15848 45.3078 2.33058C46.5034 3.50269 47.175 5.0924 47.175 6.75C47.175 8.4076 46.5034 9.99731 45.3078 11.1694C44.1123 12.3415 42.4908 13 40.8 13C39.1092 13 37.4877 12.3415 36.2922 11.1694C35.0966 9.99731 34.425 8.4076 34.425 6.75C34.425 5.0924 35.0966 3.50269 36.2922 2.33058C37.4877 1.15848 39.1092 0.5 40.8 0.5ZM0 23.8359C0 19.2344 3.80906 15.5 8.50266 15.5H11.9053C12.5562 15.5 13.1902 15.5722 13.7999 15.708C14.8029 15.9315 15.308 16.9724 15.308 18C15.308 20.9446 13.189 25.5 10.2444 25.5H1.69734C0.765 25.5 0 24.75 0 23.8359ZM32.2973 25.5C32.2781 25.5 32.2692 25.476 32.2836 25.4634C34.3788 23.6285 35.692 20.9646 35.692 18C35.692 16.9677 36.1907 15.9285 37.1986 15.7053C37.8087 15.5702 38.4433 15.5 39.0947 15.5H42.4973C47.1909 15.5 51 19.2344 51 23.8359C51 24.7578 50.235 25.5 49.3027 25.5H32.3053H32.2973ZM17.85 18C17.85 16.0109 18.6559 14.1032 20.0906 12.6967C21.5252 11.2902 23.4711 10.5 25.5 10.5C27.5289 10.5 29.4748 11.2902 30.9094 12.6967C32.3441 14.1032 33.15 16.0109 33.15 18C33.15 19.9891 32.3441 21.8968 30.9094 23.3033C29.4748 24.7098 27.5289 25.5 25.5 25.5C23.4711 25.5 21.5252 24.7098 20.0906 23.3033C18.6559 21.8968 17.85 19.9891 17.85 18ZM10.196 38.4141C10.1982 38.4141 10.2 38.4123 10.2 38.4101C10.2022 32.6619 14.9587 28 20.8223 28H30.1697C36.0427 28 40.8 32.6641 40.8 38.4141C40.8 39.5625 39.8517 40.5 38.6723 40.5H12.3197C11.1496 40.5 10.1942 39.5725 10.192 38.4181C10.192 38.4159 10.1938 38.4141 10.196 38.4141Z" fill="#D86B67"/>
</svg>
