<svg width="35" height="36" viewBox="0 0 35 36" fill="none" xmlns="http://www.w3.org/2000/svg">
<path d="M30.9897 17.9998H12.972M6.61216 17.9998H4.0105M6.61216 17.9998C6.61216 17.1326 6.94711 16.3008 7.54332 15.6876C8.13953 15.0744 8.94816 14.7298 9.79133 14.7298C10.6345 14.7298 11.4431 15.0744 12.0393 15.6876C12.6356 16.3008 12.9705 17.1326 12.9705 17.9998C12.9705 18.8671 12.6356 19.6988 12.0393 20.3121C11.4431 20.9253 10.6345 21.2698 9.79133 21.2698C8.94816 21.2698 8.13953 20.9253 7.54332 20.3121C6.94711 19.6988 6.61216 18.8671 6.61216 17.9998ZM30.9897 27.9103H22.6072M22.6072 27.9103C22.6072 28.7778 22.2714 29.6105 21.6751 30.2239C21.0787 30.8372 20.2699 31.1818 19.4265 31.1818C18.5834 31.1818 17.7747 30.8358 17.1785 30.2226C16.5823 29.6093 16.2474 28.7776 16.2474 27.9103M22.6072 27.9103C22.6072 27.0429 22.2714 26.2117 21.6751 25.5983C21.0787 24.9849 20.2699 24.6403 19.4265 24.6403C18.5834 24.6403 17.7747 24.9849 17.1785 25.5981C16.5823 26.2113 16.2474 27.0431 16.2474 27.9103M16.2474 27.9103H4.0105M30.9897 8.08934H26.4615M20.1017 8.08934H4.0105M20.1017 8.08934C20.1017 7.22208 20.4367 6.39034 21.0329 5.7771C21.6291 5.16385 22.4377 4.81934 23.2809 4.81934C23.6984 4.81934 24.1118 4.90392 24.4975 5.06825C24.8832 5.23258 25.2337 5.47345 25.5289 5.7771C25.8241 6.08074 26.0583 6.44123 26.2181 6.83796C26.3778 7.2347 26.4601 7.65991 26.4601 8.08934C26.4601 8.51876 26.3778 8.94398 26.2181 9.34071C26.0583 9.73745 25.8241 10.0979 25.5289 10.4016C25.2337 10.7052 24.8832 10.9461 24.4975 11.1104C24.1118 11.2748 23.6984 11.3593 23.2809 11.3593C22.4377 11.3593 21.6291 11.0148 21.0329 10.4016C20.4367 9.78833 20.1017 8.95659 20.1017 8.08934Z" stroke="#333333" stroke-width="1.25" stroke-miterlimit="10" stroke-linecap="round"/>
</svg>
