<svg width="152" height="135" viewBox="0 0 152 135" fill="none" xmlns="http://www.w3.org/2000/svg">
<path d="M40.6273 87.8944L28.9667 124.209M12.8547 120.121L45.0679 128.279M23.6576 57.963L44.6662 8.49512L84.3273 18.5237L72.797 70.4023C72.1224 73.5022 70.7294 76.4437 68.7066 79.0401C66.6838 81.6364 64.0752 83.8308 61.0466 85.4841C58.018 87.1373 54.6355 88.2133 51.1137 88.6436C47.592 89.0739 44.008 88.8493 40.5892 87.9838C37.1705 87.1184 33.9916 85.6311 31.2545 83.6164C28.5174 81.6017 26.2819 79.1036 24.6897 76.2806C23.0976 73.4576 22.1837 70.3715 22.006 67.2181C21.8283 64.0648 22.3907 60.913 23.6576 57.963Z" stroke="#3C3C3C" stroke-width="4" stroke-linecap="round" stroke-linejoin="round"/>
<path d="M34.1782 33.1519L78.5405 44.4822" stroke="#3C3C3C" stroke-width="4"/>
<path d="M93.0129 86.4287C97.6275 88.4507 102.82 89.193 107.916 88.5592C113.012 87.9253 117.775 85.9445 121.587 82.8743C125.399 79.8042 128.082 75.7866 129.289 71.3439C130.495 66.9012 130.169 62.2389 128.353 57.963L107.323 8.49512L101.069 10.0669M111.372 87.8944L123.033 124.209M139.145 120.121L106.932 128.279M117.822 33.2676L99.7009 37.8962" stroke="#3C3C3C" stroke-width="4" stroke-linecap="round" stroke-linejoin="round"/>
</svg>
